<svg xmlns="http://www.w3.org/2000/svg" data-name="Layer 1" viewBox="0 0 212 212"><path d="M48.63 0h114.74A48.63 48.63 0 0 1 212 48.63v142.61A20.76 20.76 0 0 1 191.24 212H48.63A48.63 48.63 0 0 1 0 163.37V48.63A48.63 48.63 0 0 1 48.63 0Z" fill="#0b6cfb"/><path d="M157 92.19a2.9 2.9 0 0 1-.08.92l-6.82 27.29a3.12 3.12 0 0 1-3 2.35l-40.94.2h-41a3.09 3.09 0 0 1-3-2.35l-6.82-27.39a3.1 3.1 0 0 1-.09-1 6.51 6.51 0 1 1 6.09-1.18l8.54 8.6a11.59 11.59 0 0 0 17.48-1.18l14-18.6a6.51 6.51 0 1 1 9.3-.11l13.93 18.66a11.64 11.64 0 0 0 9.28 4.65 11.51 11.51 0 0 0 8.19-3.4l8.59-8.59a6.51 6.51 0 1 1 6.24 1.07Zm-7.57 40.48a3.1 3.1 0 0 0-3.1-3.1H66.06a3.1 3.1 0 0 0-3.1 3.1v7.44a3.1 3.1 0 0 0 3.1 3.1h80.22a3.1 3.1 0 0 0 3.1-3.1Z" fill="#fff"/></svg>