<svg width="117" height="124" viewBox="0 0 117 124" fill="none" xmlns="http://www.w3.org/2000/svg">
<path fill-rule="evenodd" clip-rule="evenodd" d="M43.3921 48.6272L74.5332 76.3085C77.5099 78.6014 79.421 82.1562 79.421 86.1472C79.421 90.27 77.3817 93.9274 74.2349 96.2089L74.2306 96.3431L73.6156 96.6309C72.6757 97.2321 71.65 97.7158 70.5603 98.0609L19.5983 121.913C17.6663 123.054 15.4011 123.71 12.979 123.71C5.90152 123.71 0.164062 118.105 0.164062 111.189C0.164062 109.208 0.635173 107.334 1.47393 105.668L22.7892 52.0403L22.8686 52.0228C24.9541 47.8686 29.3256 45.0087 34.3807 45.0087C37.389 45.0087 40.1552 46.0215 42.3416 47.7171L42.3629 47.7124L42.5965 47.92C42.8717 48.1449 43.1372 48.3809 43.3921 48.6272Z" fill="#D9D9D9"/>
<path d="M81.2667 66.8164C84.5841 60.2482 95.5122 48.4246 113.435 53.6551" stroke="white" stroke-width="7" stroke-linecap="round" stroke-linejoin="round"/>
<path d="M45.9456 36.0536C51.3948 30.6043 60.3949 16.5415 52.8011 3.88513" stroke="white" stroke-width="7" stroke-linecap="round" stroke-linejoin="round"/>
<path d="M63.0731 47.8518C69.0909 47.8481 82.7581 44.3144 77.1023 30.4495C72.004 17.9515 80.1084 13.1727 86.2766 15.4489C92.3937 17.7063 95.6117 16.5445 95.7689 10.4099" stroke="white" stroke-width="7" stroke-linecap="round" stroke-linejoin="round"/>
<circle cx="101.091" cy="30.7311" r="5.32242" fill="#D9D9D9"/>
<circle cx="103.565" cy="84.3595" r="7.79605" fill="#D9D9D9"/>
<circle cx="15.9436" cy="17.6127" r="7.79605" fill="#D9D9D9"/>
<path d="M18.1197 67.2941L54.7241 104.254M9.59058 88.9724L33.0458 114.205" stroke="#6F7178" stroke-width="5" stroke-linecap="round" stroke-linejoin="round"/>
</svg>
