<svg width="86" height="67" viewBox="0 0 86 67" fill="none" xmlns="http://www.w3.org/2000/svg">
<path fill-rule="evenodd" clip-rule="evenodd" d="M12.2473 2.07081L12.2592 2.06415L45.1688 26.3957V26.4275C46.9311 27.8641 48.0565 30.0522 48.0565 32.5031C48.0565 34.954 46.9311 37.1421 45.1688 38.5787V38.5802L13.6976 64.0621C12.2668 65.6042 10.2226 66.5693 7.95303 66.5693C3.92213 66.5693 0.602239 63.5251 0.166859 59.6104L0.118469 59.5879V58.7347V8.85732L0.121802 8.85545C0.119585 8.77881 0.118469 8.70189 0.118469 8.62472C0.118469 4.29781 3.62612 0.790161 7.95303 0.790161C9.53853 0.790161 11.014 1.26114 12.2473 2.07081Z" fill="#6F7178"/>
<path fill-rule="evenodd" clip-rule="evenodd" d="M49.8132 2.07081L49.8252 2.06415L82.7348 26.3957V26.4275C84.4971 27.8641 85.6225 30.0522 85.6225 32.5031C85.6225 34.954 84.4971 37.1421 82.7348 38.5787V38.5802L51.2636 64.0621C49.8328 65.6042 47.7886 66.5693 45.519 66.5693C41.4881 66.5693 38.1682 63.5251 37.7328 59.6104L37.6844 59.5879V58.7347V8.85732L37.6878 8.85545C37.6856 8.77881 37.6844 8.70189 37.6844 8.62472C37.6844 4.29781 41.1921 0.790161 45.519 0.790161C47.1045 0.790161 48.58 1.26114 49.8132 2.07081Z" fill="#FAFAFA"/>
</svg>
