<svg width="161" height="161" viewBox="0 0 161 161" fill="none" xmlns="http://www.w3.org/2000/svg">
<path fill-rule="evenodd" clip-rule="evenodd" d="M140.8 80.3706C140.8 113.508 113.937 140.371 80.7996 140.371C79.8613 140.371 78.928 140.349 78.0002 140.306L82.2967 160.357C125.789 159.559 160.8 124.053 160.8 80.3706C160.8 36.1879 124.982 0.370605 80.7996 0.370605C36.6168 0.370605 0.799622 36.1879 0.799622 80.3706C0.799622 82.5037 0.883118 84.6172 1.04694 86.708L20.9094 84.0299C20.8365 82.8195 20.7996 81.5994 20.7996 80.3706C20.7996 47.2335 47.6625 20.3706 80.7996 20.3706C113.937 20.3706 140.8 47.2335 140.8 80.3706ZM88.5707 105.846C100.681 103.402 109.8 92.7013 109.8 79.8706C109.8 65.2351 97.9352 53.3706 83.2996 53.3706C69.7074 53.3706 58.5052 63.6038 56.9772 76.7863L39.8228 78.4357C40.58 55.0754 59.7554 36.3706 83.2996 36.3706C107.324 36.3706 126.8 55.8462 126.8 79.8706C126.8 103.202 108.431 122.243 85.3668 123.322L88.5707 105.846ZM57.311 146.19L47.7996 127.87L19.7701 155.853L19.7564 155.839C18.0616 157.41 15.7928 158.371 13.2996 158.371C8.05292 158.371 3.79962 154.117 3.79962 148.871C3.79962 146.374 4.76239 144.103 6.33679 142.408L6.29962 142.37L34.2996 113.37L16.2246 104.966C14.2156 104.147 12.7996 102.174 12.7996 99.8706C12.7996 97.2609 14.6172 95.0758 17.0554 94.512L78.4285 75.697C79.0126 75.4857 79.6426 75.3706 80.2996 75.3706C83.3372 75.3706 85.7996 77.833 85.7996 80.8706C85.7996 81.4448 85.7116 81.9987 85.5483 82.519L67.6854 144.991C67.1677 147.492 64.9531 149.371 62.2996 149.371C60.0906 149.371 58.1858 148.068 57.311 146.19Z" fill="#989494"/>
</svg>
